<?xml version="1.0" encoding="utf-8"?>
<!-- Generator: Adobe Illustrator 18.1.0, SVG Export Plug-In . SVG Version: 6.00 Build 0)  -->
<svg version="1.1" id="Layer_1" xmlns="http://www.w3.org/2000/svg" xmlns:xlink="http://www.w3.org/1999/xlink" x="0px" y="0px"
	 viewBox="0 0 960 560" enable-background="new 0 0 960 560" xml:space="preserve">
<path fill="#0A2F37" d="M574.6,300.8c-1.1,2.3-4,4.2-6.6,4.3l-32.9,0.1c-2.6,0-6.4,1.2-8.6,2.6l-27.5,17.9c-2.1,1.4-5.7,1.4-7.8,0
	L463.5,308c-2.1-1.4-6-2.5-8.6-2.5l-32.9,0.1c-2.6,0-5.6-1.9-6.6-4.2l-13.8-29.9c-1.1-2.3-3.7-5.4-5.9-6.8l-27.7-17.6
	c-2.1-1.4-3.6-4.6-3.3-7.1l4.5-32.5c0.4-2.5-0.2-6.5-1.3-8.9l-13.8-29.8c-1.1-2.3-0.6-5.8,1.1-7.8l21.4-24.9c1.7-2,3.3-5.6,3.7-8.2
	l4.5-32.5c0.4-2.5,2.7-5.2,5.1-6l31.5-9.4c2.5-0.7,5.8-2.9,7.5-4.9l21.4-24.9c1.7-2,5-2.9,7.5-2.2l31.5,9.1c2.5,0.7,6.5,0.7,9,0
	l31.5-9.4c2.5-0.7,5.8,0.2,7.6,2.2l21.6,24.7c1.7,1.9,5.1,4.1,7.6,4.8l31.5,9.1c2.5,0.7,4.8,3.4,5.2,5.9l4.8,32.5
	c0.4,2.5,2.1,6.2,3.7,8.1l21.6,24.7c1.7,1.9,2.2,5.4,1.2,7.7l-13.5,29.9c-1.1,2.3-1.6,6.3-1.3,8.9l4.8,32.5c0.4,2.5-1.1,5.7-3.2,7.1
	L594,263.9c-2.1,1.4-4.8,4.4-5.8,6.8L574.6,300.8z"/>
<circle fill="none" stroke="#FFFFFF" stroke-width="5" stroke-linecap="round" stroke-miterlimit="10" stroke-dasharray="0,12.0099" cx="494" cy="183.8" r="114.7"/>
<circle fill="none" stroke="#FFFFFF" stroke-width="5" stroke-linecap="round" stroke-miterlimit="10" stroke-dasharray="0,12.0099" cx="521.4" cy="164.2" r="114.7"/>
<circle fill="none" stroke="#FFFFFF" stroke-miterlimit="10" cx="494" cy="184.8" r="119.6"/>
<g>
	<path fill="#FFFFFF" d="M429.4,265.1l0.5-0.7l0.9,0.5c0.2,0.1,0.3,0.1,0.4-0.1l5.4-7.4c0.1-0.2,0.1-0.3,0-0.4l-0.7-0.7l0.5-0.7
		l3.9,2.9c2.2,1.6,2.1,3.1,1.2,4.4c-0.9,1.3-2.2,1.4-3.2,1l0,0c1.4,1.3,1.4,2.7,0.5,4c-1.4,2-3.4,1.5-5.4,0L429.4,265.1z
		 M433.9,266.8c1.4,1,2.6,1.5,3.6,0.1c0.9-1.3,0.4-2.4-0.8-3.3l-1.8-1.3l-2.5,3.5L433.9,266.8z M436.7,262.2c1,0.7,2.4,1.3,3.5-0.1
		c0.9-1.2,0.5-2-0.9-3l-1.4-1l-2.4,3.2L436.7,262.2z"/>
	<path fill="#FFFFFF" d="M439.9,272.3l0.5-0.7l1.4,0.7c0.2,0.1,0.3,0,0.4-0.1l1.6-2.8l0.2-6.8c0-0.2,0-0.3-0.2-0.4l-0.6-0.5l0.6-0.7
		l3.2,1.9l-0.5,0.7l-1.1-0.5l-0.2,5.5l4.6-2.9l-1-0.7l0.6-0.7l2.9,1.7l-0.5,0.7l-0.7-0.2c-0.2,0-0.3,0-0.5,0l-5.6,3.5l-1.7,2.8
		c-0.1,0.2-0.1,0.3,0,0.4l1.4,0.9l-0.5,0.7L439.9,272.3z"/>
	<path fill="#FFFFFF" d="M456.4,280.6l0.3-0.8l1.6,0.5c0.2,0,0.3,0,0.4-0.2l3.2-8.8l-2.4-0.9c-0.2,0-0.2,0-0.3,0.1l-0.7,1.3l-1-0.4
		l0.9-2.6l9.2,3.4l-0.9,2.6l-1-0.4l0.2-1.4c0-0.2,0-0.2-0.2-0.3l-2.4-0.9l-3.2,8.8c-0.1,0.2-0.1,0.3,0.1,0.4l1.6,0.7l-0.3,0.8
		L456.4,280.6z"/>
	<path fill="#FFFFFF" d="M467.2,284.2l0.2-0.8l1.5,0.3c0.2,0,0.3,0,0.3-0.2l0.8-3.2l-1.8-6.5c0-0.2-0.1-0.3-0.3-0.4l-0.7-0.4
		l0.4-0.8l3.5,0.9l-0.2,0.8l-1.2-0.1l1.4,5.4l3.6-4.2l-1.1-0.4l0.4-0.8l3.3,0.8l-0.2,0.8h-0.7c-0.2,0-0.3,0-0.5,0.2l-4.4,4.9
		l-0.8,3.2c0,0.2,0,0.3,0.2,0.4l1.5,0.5l-0.2,0.8L467.2,284.2z"/>
	<path fill="#FFFFFF" d="M493,287.1c-0.9,0.6-2.5,0.7-4,0.7c-4-0.2-5.5-2.8-5.2-6.4c0.2-3.5,2.3-6,6.2-5.8c1.4,0.1,2.8,0.5,3.5,1.1
		l-0.1,2.6l-1.1-0.1l-0.2-1.6c0-0.1,0-0.2-0.2-0.3c-0.6-0.2-1.3-0.4-2.1-0.5c-2.6-0.1-4.3,1.4-4.5,4.7c-0.2,3.2,1.3,4.9,3.8,5.1
		c0.7,0,1.7,0,2.3-0.2c0.1,0,0.2-0.1,0.2-0.3l0.3-1.4l1,0L493,287.1z"/>
	<path fill="#FFFFFF" d="M494.9,281.9c-0.2-3.5,1.5-6.2,5.3-6.4c3.7-0.2,5.6,2.2,5.7,5.5c0.2,3.8-1.4,6.5-5.2,6.7
		C496.9,287.9,495.1,285.5,494.9,281.9z M504.4,281.2c-0.2-3.1-1.8-4.7-4.2-4.5c-2.4,0.1-4,1.9-3.8,5.1c0.2,3.3,1.9,4.8,4.3,4.6
		C503.1,286.3,504.6,284.6,504.4,281.2z"/>
	<path fill="#FFFFFF" d="M517.3,285l-7.8-8.5l1.7,8.4c0,0.2,0.1,0.3,0.3,0.3l1.1-0.1l0.2,0.9l-3.9,0.8l-0.2-0.9l1-0.3
		c0.2-0.1,0.2-0.1,0.2-0.4l-1.8-9c0-0.2-0.1-0.3-0.3-0.3l-1,0.1l-0.2-0.9l3.1-0.7l7.7,8.4l-1.7-8.3c0-0.2-0.1-0.3-0.3-0.3l-1,0.1
		l-0.2-0.9l3.9-0.8l0.2,0.9l-1,0.3c-0.2,0.1-0.2,0.1-0.2,0.4l2.1,10.3L517.3,285z"/>
	<path fill="#FFFFFF" d="M531,280.8l-8.9-7.3l2.8,8.1c0.1,0.2,0.1,0.3,0.4,0.2l1.1-0.2l0.3,0.8l-3.7,1.3l-0.3-0.8l0.9-0.5
		c0.2-0.1,0.2-0.2,0.1-0.4l-3.1-8.6c-0.1-0.2-0.1-0.3-0.4-0.2l-1,0.2l-0.3-0.8l3-1.1l8.8,7.3l-2.8-8c-0.1-0.2-0.1-0.3-0.4-0.2
		l-1,0.2l-0.3-0.8l3.7-1.3l0.3,0.8l-1,0.5c-0.2,0.1-0.2,0.1-0.1,0.4l3.5,9.9L531,280.8z"/>
	<path fill="#FFFFFF" d="M533.4,273.5c-1.6-3.1-1-6.3,2.3-8s6-0.1,7.5,2.8c1.8,3.5,1.3,6.5-2.1,8.2
		C537.7,278.3,535,276.7,533.4,273.5z M541.8,269.2c-1.4-2.8-3.5-3.6-5.6-2.5c-2.1,1.1-2.9,3.4-1.4,6.2c1.5,2.9,3.6,3.6,5.8,2.6
		C542.7,274.3,543.4,272.2,541.8,269.2z"/>
	<path fill="#FFFFFF" d="M552.8,269.2l-0.5-0.7l1-0.8l-3-2.1c-0.5-0.3-0.7-0.3-1.3,0l-1.5,1l2.1,3.1c0.1,0.2,0.2,0.2,0.4,0.1l1-0.5
		l0.5,0.7l-3.4,2.3l-0.5-0.7l0.8-0.7c0.2-0.1,0.2-0.2,0-0.4l-5.1-7.6c-0.1-0.2-0.2-0.2-0.4-0.1l-0.9,0.5l-0.5-0.7l4.2-2.8
		c2.4-1.6,4-0.7,4.9,0.6c1,1.4,0.7,2.8-0.1,3.9c0.6-0.1,0.9,0.1,1.4,0.5l2.5,1.7c0.2,0.1,0.4,0.1,0.6,0l0.9-0.4l0.5,0.7L552.8,269.2
		z M548.1,264.9c1.3-0.9,2.1-2,1-3.5c-0.9-1.4-2.1-1.1-3.7,0l-1.1,0.7l2.5,3.6L548.1,264.9z"/>
	<path fill="#FFFFFF" d="M556.8,255l-1.1-0.9c-0.2-0.1-0.3-0.1-0.4-0.1c-0.3,0-0.7,0.2-1.4,0.8c-1.3,1.1-1.4,2.2-0.7,3.1
		c0.9,1,2,0.6,3.3,0c1.6-0.7,3.3-1.4,4.9,0.4c1.6,1.9,0.7,3.9-1.1,5.4c-1.1,1-2.5,1.6-3,1.7l-1.7-2.1l0.8-0.7l1.2,0.9
		c0.2,0.1,0.2,0.1,0.5,0c0.2-0.1,0.8-0.4,1.6-1c1.3-1.1,1.6-2.2,0.7-3.3c-0.9-1.1-2.1-0.7-3.3-0.1c-1.6,0.7-3.3,1.6-4.9-0.3
		c-1.5-1.8-0.7-3.7,1-5.2c1-0.9,2.1-1.4,2.7-1.5l1.8,2.1L556.8,255z"/>
</g>
<g>
	<path fill="#FFFFFF" d="M444.2,113.6l-0.9-1.2l1.7-1.6l-3.9-2.6l-6.3,4.7l1.5,4.4l2-1.2l0.9,1.2l-5.1,3.9l-0.9-1.2l0.8-1
		c0.3-0.4,0.4-0.5,0.2-0.8l-5.8-18.1l2.6-2l15.8,10.6c0.3,0.2,0.5,0.1,0.8,0l1.2-0.5l0.9,1.2L444.2,113.6z M430.8,101l3.3,9.8
		l5.2-3.9L430.8,101z"/>
	<path fill="#FFFFFF" d="M461.7,104.1l-8.5-10.4l1.9,13.4l-2.9,1.3l-11.6-14.5c-0.2-0.3-0.4-0.3-0.7-0.2l-1.6,0.4l-0.4-1.5l6.4-2.9
		l0.6,1.4l-2.1,1.3l9.9,12.8l-2.1-13.8l2.6-1.2l9.1,10.9l-2.9-16.1l-2.4,0.8l-0.4-1.5l6-2.7l0.6,1.4l-1.2,0.8
		c-0.3,0.2-0.4,0.3-0.3,0.7l3.3,18.2L461.7,104.1z"/>
	<path fill="#FFFFFF" d="M470.7,100.8l-0.3-1.5l1.7-0.5c0.4-0.1,0.4-0.2,0.3-0.7l-2.9-15.4c-0.1-0.4-0.1-0.5-0.6-0.5l-1.8,0.1
		l-0.3-1.5l13.8-2.7l0.9,4.5l-1.9,0.2l-0.8-2.1c-0.1-0.3-0.2-0.3-0.5-0.3l-6.4,1.2l1.3,6.9l7.3-1.4l0.4,2l-7.3,1.4l1.4,7.1l7-1.4
		c0.3,0,0.4-0.1,0.4-0.4v-2.5l1.8-0.4L485,98L470.7,100.8z"/>
	<path fill="#FFFFFF" d="M496.8,82.8l-0.5-2.4c-0.1-0.4-0.2-0.5-0.3-0.6c-0.4-0.2-1.2-0.5-2.7-0.4c-2.9,0-4.2,1.3-4.2,3.3
		c0,2.3,2.1,3,4.3,3.6c2.8,0.8,6,1.7,6.1,5.9c0,4.3-3.3,6-7.3,6c-2.6,0-5-0.6-5.9-1l0-4.6l1.9,0l0.6,2.5c0.1,0.4,0.2,0.5,0.6,0.6
		c0.4,0.1,1.5,0.5,3.1,0.4c2.8,0,4.5-1.2,4.5-3.6c0-2.5-2-3.2-4.2-3.8c-2.8-0.8-6.1-1.5-6.2-5.7c0-4,3-5.7,7-5.8
		c2.3,0,4.2,0.6,5.2,0.9l0,4.8L496.8,82.8z"/>
	<path fill="#FFFFFF" d="M502.4,87.5c1.1-5.8,5.2-9.6,11.5-8.4c6.3,1.2,8.3,6.1,7.2,11.6c-1.2,6.5-5.1,10.1-11.4,9
		C503.3,98.5,501.3,93.7,502.4,87.5z M518.5,90.5c1-5.3-1-8.5-5-9.3c-4.1-0.7-7.4,1.5-8.4,6.8c-1,5.6,1.1,8.8,5.2,9.5
		C514.2,98.3,517.4,96.2,518.5,90.5z"/>
	<path fill="#FFFFFF" d="M534.2,107.7l0.7-1.4l2.2,0.8c0.4,0.1,0.5,0,0.7-0.3l5.8-12.6l-9.9,8l-2.5-1.1L531,88.4l-5.8,12.6
		c-0.2,0.4-0.2,0.5,0.2,0.7l2.1,1.2l-0.7,1.4l-6.9-3.2l0.7-1.4l1.7,0.6c0.4,0.1,0.5,0,0.7-0.3l6.6-14.2c0.2-0.4,0.2-0.5-0.2-0.7
		l-1.5-0.9l0.7-1.4l4.9,2.3v14.7l11.4-9.4l4.9,2.2l-0.7,1.4l-1.8-0.6c-0.4-0.1-0.5-0.1-0.7,0.3l-6.6,14.3c-0.1,0.3-0.1,0.5,0.2,0.7
		l1.6,1l-0.7,1.4L534.2,107.7z"/>
	<path fill="#FFFFFF" d="M541.7,111.9l0.9-1.2l1.5,0.9c0.3,0.2,0.4,0.2,0.7-0.2l9.7-12.4c0.3-0.3,0.3-0.5,0-0.7l-1.3-1.3l0.9-1.2
		l11.1,8.6l-2.8,3.6l-1.4-1.3l1-2c0.1-0.2,0.1-0.4-0.1-0.6l-5.1-4l-4.3,5.6l5.9,4.6L557,112l-5.9-4.6l-4.4,5.7l5.6,4.4
		c0.2,0.2,0.3,0.2,0.6,0l1.9-1.6l1.5,1.2l-2.9,3.7L541.7,111.9z"/>
</g>
<g id="Banner">
	<g id="BannerLSide_3_">
		<path fill="#45773D" stroke="#020000" stroke-width="5" stroke-miterlimit="10" d="M352.3,255.2c-13.3,1.6-26.6,3.5-39.9,5.6
			c0.4-17.5,0.9-35,1.6-52.5c-5.8-16.6-11.7-33-17.8-49.6c14.5-2.3,29-4.3,43.5-6.1C343.9,186.8,348.1,221,352.3,255.2z"/>
		<path stroke="#020000" stroke-width="5" stroke-miterlimit="10" d="M352.3,255c-6.3-2.4-12.6-4.7-18.9-7
			c5.9-0.8,11.9-1.6,17.8-2.3C351.6,248.8,351.9,251.9,352.3,255z"/>
	</g>
	<g id="BannerLSide_2_">
		<path fill="#45773D" stroke="#020000" stroke-width="5" stroke-miterlimit="10" d="M633.3,255.2c13.3,1.6,26.6,3.5,39.9,5.6
			c-0.4-17.5-0.9-35-1.6-52.5c5.8-16.6,11.7-33,17.8-49.6c-14.5-2.3-29-4.3-43.5-6.1C641.7,186.8,637.5,221,633.3,255.2z"/>
		<path stroke="#020000" stroke-width="5" stroke-miterlimit="10" d="M633.3,255c6.3-2.4,12.6-4.7,18.9-7
			c-5.9-0.8-11.9-1.6-17.8-2.3C634,248.8,633.6,251.9,633.3,255z"/>
	</g>
	<g>
		<path d="M662.1,154.5c-4.7,34.2-9.3,68.5-14,102.7"/>
		<g>
			<g>
				<path d="M645.3,156.7c0.2-1.4,0.3-2.8,0.5-4.3c10.8,2.1,21.6,4.2,32.4,6.6C667.3,158.1,656.3,157.3,645.3,156.7z"/>
			</g>
			<g>
				<path d="M644.8,161c0.2-1.4,0.3-2.8,0.5-4.3c10.8,2.1,21.6,4.2,32.2,6.6C666.7,162.3,655.7,161.6,644.8,161z"/>
			</g>
			<g>
				<path d="M644.3,165.2c0.2-1.4,0.3-2.8,0.5-4.3c10.7,2.1,21.5,4.2,32.2,6.5C666.1,166.6,655.2,165.9,644.3,165.2z"/>
			</g>
			<g>
				<path d="M643.8,169.5c0.2-1.4,0.3-2.8,0.5-4.3c10.7,2.1,21.4,4.2,32.1,6.5C665.5,170.9,654.6,170.1,643.8,169.5z"/>
			</g>
			<g>
				<path d="M643.2,173.8c0.2-1.4,0.3-2.8,0.5-4.3c10.7,2.1,21.3,4.2,31.9,6.5C664.8,175.1,654.1,174.4,643.2,173.8z"/>
			</g>
			<g>
				<path d="M642.7,178.1c0.2-1.4,0.3-2.8,0.5-4.3c10.6,2,21.2,4.2,31.8,6.5C664.3,179.4,653.5,178.7,642.7,178.1z"/>
			</g>
			<g>
				<path d="M642.2,182.4c0.2-1.4,0.3-2.8,0.5-4.3c10.6,2,21.2,4.2,31.7,6.5C663.7,183.7,652.9,183,642.2,182.4z"/>
			</g>
			<g>
				<path d="M641.7,186.7c0.2-1.4,0.3-2.8,0.5-4.3c10.5,2,21.1,4.2,31.6,6.5C663.1,188,652.3,187.3,641.7,186.7z"/>
			</g>
			<g>
				<path d="M641.1,191c0.2-1.4,0.3-2.8,0.5-4.3c10.5,2,21,4.2,31.5,6.4C662.5,192.3,651.8,191.5,641.1,191z"/>
			</g>
			<g>
				<path d="M640.6,195.3c0.2-1.4,0.3-2.8,0.5-4.3c10.5,2,21,4.2,31.4,6.4C661.9,196.5,651.2,195.8,640.6,195.3z"/>
			</g>
			<g>
				<path d="M640.1,199.5c0.2-1.4,0.3-2.8,0.5-4.3c10.5,2,20.9,4.2,31.3,6.4C661.3,200.8,650.7,200.1,640.1,199.5z"/>
			</g>
			<g>
				<path d="M639.6,203.8c0.2-1.4,0.3-2.8,0.5-4.3c10.4,2,20.8,4.2,31.1,6.4C660.6,205.1,650.1,204.4,639.6,203.8z"/>
			</g>
			<g>
				<path d="M639,208.1c0.2-1.4,0.3-2.8,0.5-4.3c10.4,2,20.7,4.1,31,6.4C660.1,209.3,649.5,208.6,639,208.1z"/>
			</g>
			<g>
				<path d="M638.5,212.4c0.2-1.4,0.3-2.8,0.5-4.3c10.4,2,20.6,4.1,30.9,6.4C659.5,213.6,649,212.9,638.5,212.4z"/>
			</g>
			<g>
				<path d="M638,216.7c0.2-1.4,0.3-2.8,0.5-4.3c10.3,2,20.6,4.1,30.8,6.3C658.9,217.9,648.4,217.2,638,216.7z"/>
			</g>
			<g>
				<path d="M637.5,220.9c0.2-1.4,0.3-2.8,0.5-4.3c10.3,2,20.5,4.1,30.7,6.3C658.3,222.2,647.9,221.5,637.5,220.9z"/>
			</g>
			<g>
				<path d="M636.9,225.2c0.2-1.4,0.3-2.8,0.5-4.3c10.2,2,20.4,4.1,30.6,6.3C657.7,226.5,647.3,225.8,636.9,225.2z"/>
			</g>
			<g>
				<path d="M636.4,229.5c0.2-1.4,0.3-2.8,0.5-4.3c10.2,2,20.3,4.1,30.5,6.3C657.1,230.7,646.7,230.1,636.4,229.5z"/>
			</g>
			<g>
				<path d="M635.9,233.8c0.2-1.4,0.3-2.8,0.5-4.3c10.2,2,20.3,4.1,30.4,6.3C656.4,235,646.2,234.3,635.9,233.8z"/>
			</g>
			<g>
				<path d="M635.4,238.1c0.2-1.4,0.3-2.8,0.5-4.3c10.1,2,20.2,4.1,30.2,6.3C655.9,239.3,645.6,238.6,635.4,238.1z"/>
			</g>
			<g>
				<path d="M634.8,242.4c0.2-1.4,0.3-2.8,0.5-4.3c10.1,2,20.1,4.1,30.1,6.3C655.3,243.6,645.1,242.9,634.8,242.4z"/>
			</g>
			<g>
				<path d="M634.3,246.6c0.2-1.4,0.3-2.8,0.5-4.3c10,2,20.1,4.1,30,6.3C654.7,247.8,644.5,247.2,634.3,246.6z"/>
			</g>
			<g>
				<path d="M633.8,250.9c0.2-1.4,0.3-2.8,0.5-4.3c10,2,20,4,29.9,6.3C654.1,252.1,643.9,251.4,633.8,250.9z"/>
			</g>
			<g>
				<path d="M633.3,255.2c0.2-1.4,0.3-2.8,0.5-4.3c10,2,19.9,4,29.8,6.2C653.5,256.4,643.4,255.7,633.3,255.2z"/>
			</g>
		</g>
	</g>
	<g>
		<path d="M337.5,257.1c-4.6-34.2-9.3-68.5-13.9-102.7"/>
		<g>
			<g>
				<path d="M351.9,250.9c0.2,1.4,0.3,2.8,0.5,4.3c-10.1,0.5-20.2,1.2-30.3,2C332,254.9,341.9,252.9,351.9,250.9z"/>
			</g>
			<g>
				<path d="M351.3,246.6c0.2,1.4,0.3,2.8,0.5,4.3c-10.1,0.5-20.3,1.2-30.4,2C331.4,250.6,341.4,248.6,351.3,246.6z"/>
			</g>
			<g>
				<path d="M350.8,242.3c0.2,1.4,0.3,2.8,0.5,4.3c-10.2,0.5-20.3,1.2-30.6,2C330.8,246.4,340.8,244.3,350.8,242.3z"/>
			</g>
			<g>
				<path d="M350.3,238c0.2,1.4,0.3,2.8,0.5,4.3c-10.2,0.5-20.4,1.2-30.7,2C330.2,242.1,340.2,240,350.3,238z"/>
			</g>
			<g>
				<path d="M349.8,233.8c0.2,1.4,0.3,2.8,0.5,4.3c-10.3,0.5-20.5,1.2-30.8,2C329.6,237.9,339.7,235.8,349.8,233.8z"/>
			</g>
			<g>
				<path d="M349.2,229.5c0.2,1.4,0.3,2.8,0.5,4.3c-10.3,0.5-20.6,1.2-30.9,2C329,233.6,339.1,231.5,349.2,229.5z"/>
			</g>
			<g>
				<path d="M348.7,225.2c0.2,1.4,0.3,2.8,0.5,4.3c-10.3,0.6-20.7,1.2-31,2C328.4,229.3,338.6,227.2,348.7,225.2z"/>
			</g>
			<g>
				<path d="M348.2,220.9c0.2,1.4,0.3,2.8,0.5,4.3c-10.4,0.6-20.7,1.2-31.1,2.1C327.8,225,338,222.9,348.2,220.9z"/>
			</g>
			<g>
				<path d="M347.7,216.6c0.2,1.4,0.3,2.8,0.5,4.3c-10.4,0.6-20.8,1.2-31.2,2.1C327.2,220.7,337.4,218.6,347.7,216.6z"/>
			</g>
			<g>
				<path d="M347.1,212.4c0.2,1.4,0.3,2.8,0.5,4.3c-10.5,0.6-20.9,1.3-31.3,2.1C326.6,216.5,336.9,214.3,347.1,212.4z"/>
			</g>
			<g>
				<path d="M346.6,208.1c0.2,1.4,0.3,2.8,0.5,4.3c-10.5,0.6-21,1.3-31.5,2.1C326,212.2,336.3,210,346.6,208.1z"/>
			</g>
			<g>
				<path d="M346.1,203.8c0.2,1.4,0.3,2.8,0.5,4.3c-10.5,0.6-21,1.3-31.5,2.1C325.4,207.9,335.8,205.8,346.1,203.8z"/>
			</g>
			<g>
				<path d="M345.6,199.5c0.2,1.4,0.3,2.8,0.5,4.3c-10.5,0.6-21.1,1.3-31.7,2.1C324.8,203.7,335.2,201.5,345.6,199.5z"/>
			</g>
			<g>
				<path d="M345,195.2c0.2,1.4,0.3,2.8,0.5,4.3c-10.6,0.6-21.2,1.3-31.8,2.1C324.2,199.4,334.6,197.2,345,195.2z"/>
			</g>
			<g>
				<path d="M344.5,190.9c0.2,1.4,0.3,2.8,0.5,4.3c-10.6,0.6-21.3,1.3-31.9,2.1C323.6,195.1,334,193,344.5,190.9z"/>
			</g>
			<g>
				<path d="M344,186.7c0.2,1.4,0.3,2.8,0.5,4.3c-10.7,0.6-21.3,1.3-32,2.1C323,190.8,333.5,188.7,344,186.7z"/>
			</g>
			<g>
				<path d="M343.5,182.4c0.2,1.4,0.3,2.8,0.5,4.3c-10.7,0.6-21.4,1.3-32.1,2.2C322.4,186.5,332.9,184.4,343.5,182.4z"/>
			</g>
			<g>
				<path d="M343,178.1c0.2,1.4,0.3,2.8,0.5,4.3c-10.7,0.6-21.5,1.3-32.2,2.2C321.8,182.3,332.3,180.1,343,178.1z"/>
			</g>
			<g>
				<path d="M342.4,173.8c0.2,1.4,0.3,2.8,0.5,4.3c-10.8,0.6-21.6,1.4-32.3,2.2C321.2,178,331.8,175.8,342.4,173.8z"/>
			</g>
			<g>
				<path d="M341.9,169.5c0.2,1.4,0.3,2.8,0.5,4.3c-10.8,0.6-21.7,1.4-32.4,2.2C320.6,173.7,331.2,171.5,341.9,169.5z"/>
			</g>
			<g>
				<path d="M341.4,165.2c0.2,1.4,0.3,2.8,0.5,4.3c-10.9,0.6-21.7,1.4-32.6,2.2C320,169.4,330.7,167.3,341.4,165.2z"/>
			</g>
			<g>
				<path d="M340.9,161c0.2,1.4,0.3,2.8,0.5,4.3c-10.9,0.6-21.8,1.4-32.7,2.2C319.4,165.2,330.1,163,340.9,161z"/>
			</g>
			<g>
				<path d="M340.3,156.7c0.2,1.4,0.3,2.8,0.5,4.3c-10.9,0.6-21.8,1.4-32.8,2.3C318.8,160.9,329.5,158.7,340.3,156.7z"/>
			</g>
			<g>
				<path d="M339.8,152.4c0.2,1.4,0.3,2.8,0.5,4.3c-11,0.6-21.9,1.4-32.9,2.3C318.2,156.6,329,154.4,339.8,152.4z"/>
			</g>
		</g>
	</g>
	<path fill="#45773D" stroke="#020000" stroke-width="5" stroke-miterlimit="10" d="M652.2,248.2c-105.7-14.6-212.9-14.6-318.7,0
		c-4.7-34.1-9.4-68.2-14.1-102.3c115.1-15.9,231.8-15.9,347,0C661.5,179.9,656.9,214.1,652.2,248.2z"/>
	<g>
		<path stroke="#0A2F37" stroke-width="10" stroke-miterlimit="10" d="M331.8,152.6c4.6-0.6,9.1-1.2,13.7-1.7c6-0.7,12.1,0,17.1,3.5
			c5,3.5,8.6,9.7,9.6,19.4c0.9,9.8-1.4,16.4-5.4,20.8c-4,4.4-9.5,6.7-15.3,7.3c1.4,11.3,2.7,22.7,4,34.1c-4.2,0.5-8.5,1-12.8,1.6
			C339.1,209.3,335.5,181,331.8,152.6z M350,189.3c4.1-0.5,6.6-1.4,7.8-3.6c1.3-2,1.3-5.2,0.8-9.9s-1.3-8.1-3-10
			c-1.7-1.9-4.5-2.6-8.6-2.1C348,172.2,349.1,180.8,350,189.3z"/>
		<path stroke="#0A2F37" stroke-width="10" stroke-miterlimit="10" d="M407.3,231.2c-3.1-11.9-6.3-23.7-9.5-35.6
			c-1.2,0.1-2.4,0.2-3.5,0.3c1,12,2,24,2.9,36c-4.3,0.3-8.5,0.7-12.8,1.1c-2.7-28.5-5.3-56.9-7.9-85.4c4.6-0.4,9.1-0.8,13.7-1.2
			c16.5-1.3,24,6.8,25,23c0.5,8.5-1.4,16.3-6.2,19.9c3.8,13.6,7.5,27.3,11.1,40.9C415.9,230.6,411.6,230.9,407.3,231.2z
			 M393.3,184.3c1.9-0.1,4.3-0.6,6.2-2.4c1.9-1.8,3.2-5,2.8-11.1c-0.4-6.1-2.3-9.2-4.4-10.7c-2.1-1.5-4.7-1.4-6.6-1.3
			C392,167.4,392.7,175.8,393.3,184.3z"/>
		<path stroke="#0A2F37" stroke-width="10" stroke-miterlimit="10" d="M460.2,210.9c0,3.5-0.7,6.7-1.9,9.4c-1,2.4-2.6,4.6-4.9,6.4
			c-2.3,2-5.5,3.1-9.8,3.3c-4.3,0.2-7.7-0.7-10.1-2.5c-2.5-1.6-4.2-3.7-5.3-6c-1.4-2.6-2.4-5.7-2.7-9.2c-0.9-16.8-1.9-33.6-2.8-50.4
			c0-3.4,0.5-6.6,1.8-9.3c1-2.4,2.5-4.8,5-6.7c2.5-1.9,6-3.2,10.6-3.4c4.6-0.2,8.1,0.8,10.7,2.5s4.4,3.9,5.6,6.3
			c1.5,2.7,2.3,5.8,2.5,9.1C459.3,177.2,459.7,194.1,460.2,210.9z M445.2,160.9c-0.1-2.3-0.7-4-2-5.3c-0.7-0.6-1.7-0.9-2.8-0.8
			c-2.4,0.1-3.5,1.8-3.9,3.3c-0.3,0.9-0.4,2-0.4,3.2c0.7,16.8,1.5,33.6,2.3,50.4c0.1,2.4,0.8,4.1,2.1,5.3c0.6,0.6,1.5,0.9,2.6,0.8
			c2.3-0.1,3.3-1.5,3.7-3.3c0.3-0.8,0.4-1.9,0.4-3.2C446.5,194.5,445.9,177.7,445.2,160.9z"/>
		<path stroke="#0A2F37" stroke-width="10" stroke-miterlimit="10" d="M465.1,216.9c2.5,0.3,4.4-0.3,5.8-2.2c0.7-0.8,1-2.2,1-4.2
			c-0.4-22.6-0.8-45.3-1.2-67.9c4.6-0.1,9.2-0.1,13.8-0.2c0.1,23.3,0.3,46.6,0.5,69.9c0,4.7-1.2,9-4.1,12.2
			c-2.9,3.2-7.9,5.1-15.5,4.8C465.3,225.1,465.2,221,465.1,216.9z"/>
		<path stroke="#0A2F37" stroke-width="10" stroke-miterlimit="10" d="M494,142.3c10.5,0,21,0.1,31.5,0.4c-0.1,4.3-0.2,8.6-0.3,12.9
			c-5.8-0.1-11.7-0.3-17.5-0.3c-0.1,7.5-0.2,15-0.3,22.5c4.2,0,8.3,0.1,12.4,0.2c-0.1,4.6-0.2,9.2-0.3,13.8
			c-4.1-0.1-8.2-0.1-12.3-0.2c-0.1,7.8-0.2,15.7-0.3,23.6c5.6,0,11.2,0.2,16.7,0.3c-0.1,4.3-0.2,8.6-0.3,12.9
			c-9.8-0.2-19.6-0.4-29.4-0.4C494,199.5,494,170.9,494,142.3z"/>
		<path stroke="#0A2F37" stroke-width="10" stroke-miterlimit="10" d="M565.6,200.9c-0.2,3.9-0.5,7.8-0.7,11.8
			c-0.3,3.5-1.3,6.6-2.7,9.2c-1.2,2.3-3,4.4-5.5,6c-2.5,1.7-5.7,2.6-10,2.4c-4.3-0.2-7.6-1.4-9.8-3.3c-2.3-1.8-3.8-4.1-4.8-6.5
			c-1.2-2.7-1.9-5.9-1.9-9.4c0.5-16.8,1.1-33.6,1.6-50.5c0.2-3.4,1.1-6.5,2.6-9.1c1.2-2.3,2.9-4.6,5.6-6.2c2.6-1.6,6.3-2.7,10.8-2.5
			c4.6,0.2,8,1.5,10.5,3.5c2.5,1.9,4.1,4.3,5.1,6.7c1.2,2.8,1.8,6,1.7,9.3c-0.2,3.9-0.5,7.8-0.7,11.8c-4.2-0.2-8.4-0.5-12.6-0.7
			c0.2-3.9,0.4-7.8,0.6-11.8c0.1-2.3-0.4-4-1.7-5.5c-0.6-0.6-1.7-1-3.1-1.1c-2.4-0.1-3.6,1.5-4.3,2.9c-0.4,0.9-0.6,2-0.7,3.1
			c-0.7,16.8-1.4,33.6-2.1,50.5c0,2.5,0.7,4.1,1.8,5.5c0.6,0.6,1.4,1,2.5,1c2.8,0.1,3.9-1.2,4.6-2.9c0.4-0.8,0.6-1.8,0.7-3.1
			c0.2-3.9,0.4-7.8,0.6-11.8C557.5,200.4,561.6,200.6,565.6,200.9z"/>
		<path stroke="#0A2F37" stroke-width="10" stroke-miterlimit="10" d="M571.7,157.8c0.3-4.3,0.6-8.6,0.8-12.9
			c13.3,0.8,26.5,1.9,39.7,3.2c-0.4,4.3-0.8,8.6-1.2,12.9c-4.3-0.4-8.5-0.8-12.8-1.2c-2.1,24.2-4.1,48.3-6.2,72.5
			c-4.2-0.4-8.5-0.7-12.8-1c1.8-24.2,3.6-48.4,5.4-72.6C580.2,158.3,576,158.1,571.7,157.8z"/>
		<path stroke="#0A2F37" stroke-width="10" stroke-miterlimit="10" d="M637.6,173.8c0.3-2.8,0.6-5.9,0-8.4c-0.6-2.4-1.8-4.2-4-4.4
			c-3.5-0.3-5,2.9-5.6,7.9c-0.3,2.9,0.7,6.1,2.3,9.5c1.6,3.5,3.8,7.1,6,11c2.6,4.7,5.1,9.4,6.9,14c1.8,4.6,2.8,9.2,2.2,13.8
			c-0.7,5.7-2.4,10.9-5.6,14.5s-7.9,5.6-14.9,4.8c-8.2-0.9-12.5-4.4-14.6-9.3c-2.1-4.9-2.1-11.1-1.5-17.5c4.3,0,8.6,0.1,12.9,0.1
			c-0.4,3.6-0.7,7.2,0,10c0.5,2.9,1.8,4.9,4.5,5.2c3.8,0.4,5.7-3.3,6.3-8.8c0.3-2.8-0.7-6.2-2.3-9.8c-0.9-1.7-1.8-3.6-2.8-5.5
			c-2.1-3.8-4.6-8-7-12.6c-2.5-4.6-4.3-9.2-5.2-13.9c-0.5-2.3-0.7-4.6-0.5-7c0.5-4.6,2.1-9.5,5.4-13.1c3.3-3.4,8-5.6,14.5-5
			c8.3,0.8,12.7,4.6,14.8,9.4c2.1,4.9,2.1,10.7,1.4,15.5C646.5,174.1,642.1,174,637.6,173.8z"/>
	</g>
	<g>
		<path fill="#FFFFFF" d="M330.4,151.2c4.6-0.6,9.1-1.2,13.7-1.7c6-0.7,12.1,0,17.1,3.5c5,3.5,8.6,9.7,9.6,19.4
			c0.9,9.8-1.4,16.4-5.4,20.8c-4,4.4-9.5,6.7-15.3,7.3c1.4,11.3,2.7,22.7,4,34.1c-4.2,0.5-8.5,1-12.8,1.6
			C337.7,207.9,334.1,179.6,330.4,151.2z M348.6,187.9c4.1-0.5,6.6-1.4,7.8-3.6c1.3-2,1.3-5.2,0.8-9.9c-0.5-4.8-1.3-8.1-3-10
			s-4.5-2.6-8.6-2.1C346.6,170.8,347.7,179.4,348.6,187.9z"/>
		<path fill="#FFFFFF" d="M405.9,229.8c-3.1-11.9-6.3-23.7-9.5-35.6c-1.2,0.1-2.4,0.2-3.5,0.3c1,12,2,24,2.9,36
			c-4.3,0.3-8.5,0.7-12.8,1.1c-2.7-28.5-5.3-56.9-7.9-85.4c4.6-0.4,9.1-0.8,13.7-1.2c16.5-1.3,24,6.8,25,23
			c0.5,8.5-1.4,16.3-6.2,19.9c3.8,13.6,7.5,27.3,11.1,40.9C414.5,229.2,410.2,229.5,405.9,229.8z M391.9,182.9
			c1.9-0.1,4.3-0.6,6.2-2.4c1.9-1.8,3.2-5,2.8-11.1c-0.4-6.1-2.3-9.2-4.4-10.7c-2.1-1.5-4.7-1.4-6.6-1.3
			C390.6,166,391.3,174.4,391.9,182.9z"/>
		<path fill="#FFFFFF" d="M458.8,209.5c0,3.5-0.7,6.7-1.9,9.4c-1,2.4-2.6,4.6-4.9,6.4c-2.3,2-5.5,3.1-9.8,3.3
			c-4.3,0.2-7.7-0.7-10.1-2.5c-2.5-1.6-4.2-3.7-5.3-6c-1.4-2.6-2.4-5.7-2.7-9.2c-0.9-16.8-1.9-33.6-2.8-50.4c0-3.4,0.5-6.6,1.8-9.3
			c1-2.4,2.5-4.8,5-6.7c2.5-1.9,6-3.2,10.6-3.4c4.6-0.2,8.1,0.8,10.7,2.5c2.6,1.7,4.4,3.9,5.6,6.3c1.5,2.7,2.3,5.8,2.5,9.1
			C457.9,175.8,458.3,192.7,458.8,209.5z M443.8,159.5c-0.1-2.3-0.7-4-2-5.3c-0.7-0.6-1.7-0.9-2.8-0.8c-2.4,0.1-3.5,1.8-3.9,3.3
			c-0.3,0.9-0.4,2-0.4,3.2c0.7,16.8,1.5,33.6,2.3,50.4c0.1,2.4,0.8,4.1,2.1,5.3c0.6,0.6,1.5,0.9,2.6,0.8c2.3-0.1,3.3-1.5,3.7-3.3
			c0.3-0.8,0.4-1.9,0.4-3.2C445.1,193.1,444.5,176.3,443.8,159.5z"/>
		<path fill="#FFFFFF" d="M463.7,215.5c2.5,0.3,4.4-0.3,5.8-2.2c0.7-0.8,1-2.2,1-4.2c-0.4-22.6-0.8-45.3-1.2-67.9
			c4.6-0.1,9.2-0.1,13.8-0.2c0.1,23.3,0.3,46.6,0.5,69.9c0,4.7-1.2,9-4.1,12.2c-2.9,3.2-7.9,5.1-15.5,4.8
			C463.9,223.7,463.8,219.6,463.7,215.5z"/>
		<path fill="#FFFFFF" d="M492.6,140.9c10.5,0,21,0.1,31.5,0.4c-0.1,4.3-0.2,8.6-0.3,12.9c-5.8-0.1-11.7-0.3-17.5-0.3
			c-0.1,7.5-0.2,15-0.3,22.5c4.2,0,8.3,0.1,12.4,0.2c-0.1,4.6-0.2,9.2-0.3,13.8c-4.1-0.1-8.2-0.1-12.3-0.2
			c-0.1,7.8-0.2,15.7-0.3,23.6c5.6,0,11.2,0.2,16.7,0.3c-0.1,4.3-0.2,8.6-0.3,12.9c-9.8-0.2-19.6-0.4-29.4-0.4
			C492.6,198.1,492.6,169.5,492.6,140.9z"/>
		<path fill="#FFFFFF" d="M564.2,199.5c-0.2,3.9-0.5,7.8-0.7,11.8c-0.3,3.5-1.3,6.6-2.7,9.2c-1.2,2.3-3,4.4-5.5,6
			c-2.5,1.7-5.7,2.6-10,2.4c-4.3-0.2-7.6-1.4-9.8-3.3c-2.3-1.8-3.8-4.1-4.8-6.5c-1.2-2.7-1.9-5.9-1.9-9.4
			c0.5-16.8,1.1-33.6,1.6-50.5c0.2-3.4,1.1-6.5,2.6-9.1c1.2-2.3,2.9-4.6,5.6-6.2c2.6-1.6,6.3-2.7,10.8-2.5c4.6,0.2,8,1.5,10.5,3.5
			c2.5,1.9,4.1,4.3,5.1,6.7c1.2,2.8,1.8,6,1.7,9.3c-0.2,3.9-0.5,7.8-0.7,11.8c-4.2-0.2-8.4-0.5-12.6-0.7c0.2-3.9,0.4-7.8,0.6-11.8
			c0.1-2.3-0.4-4-1.7-5.5c-0.6-0.6-1.7-1-3.1-1.1c-2.4-0.1-3.6,1.5-4.3,2.9c-0.4,0.9-0.6,2-0.7,3.1c-0.7,16.8-1.4,33.6-2.1,50.5
			c0,2.5,0.7,4.1,1.8,5.5c0.6,0.6,1.4,1,2.5,1c2.8,0.1,3.9-1.2,4.6-2.9c0.4-0.8,0.6-1.8,0.7-3.1c0.2-3.9,0.4-7.8,0.6-11.8
			C556.1,199,560.2,199.2,564.2,199.5z"/>
		<path fill="#FFFFFF" d="M570.3,156.4c0.3-4.3,0.6-8.6,0.8-12.9c13.3,0.8,26.5,1.9,39.7,3.2c-0.4,4.3-0.8,8.6-1.2,12.9
			c-4.3-0.4-8.5-0.8-12.8-1.2c-2.1,24.2-4.1,48.3-6.2,72.5c-4.2-0.4-8.5-0.7-12.8-1c1.8-24.2,3.6-48.4,5.4-72.6
			C578.8,156.9,574.6,156.7,570.3,156.4z"/>
		<path fill="#FFFFFF" d="M636.2,172.4c0.3-2.8,0.6-5.9,0-8.4c-0.6-2.4-1.8-4.2-4-4.4c-3.5-0.3-5,2.9-5.6,7.9
			c-0.3,2.9,0.7,6.1,2.3,9.5c1.6,3.5,3.8,7.1,6,11c2.6,4.7,5.1,9.4,6.9,14c1.8,4.6,2.8,9.2,2.2,13.8c-0.7,5.7-2.4,10.9-5.6,14.5
			c-3.2,3.6-7.9,5.6-14.9,4.8c-8.2-0.9-12.5-4.4-14.6-9.3c-2.1-4.9-2.1-11.1-1.5-17.5c4.3,0,8.6,0.1,12.9,0.1c-0.4,3.6-0.7,7.2,0,10
			c0.5,2.9,1.8,4.9,4.5,5.2c3.8,0.4,5.7-3.3,6.3-8.8c0.3-2.8-0.7-6.2-2.3-9.8c-0.9-1.7-1.8-3.6-2.8-5.5c-2.1-3.8-4.6-8-7-12.6
			c-2.5-4.6-4.3-9.2-5.2-13.9c-0.5-2.3-0.7-4.6-0.5-7c0.5-4.6,2.1-9.5,5.4-13.1c3.3-3.4,8-5.6,14.5-5c8.3,0.8,12.7,4.6,14.8,9.4
			c2.1,4.9,2.1,10.7,1.4,15.5C645.1,172.7,640.7,172.6,636.2,172.4z"/>
	</g>
</g>
<g display="none">
	<path display="inline" d="M345.3,142.6h12.6c5.5,0,11,1.4,15.2,5.4c4.2,4,7,10.5,7,20.3s-2.8,16.2-7,20.2c-4.2,4-9.7,5.6-15.2,5.6
		v34.3h-12.6V142.6z M357.9,181.2c3.9,0,6.3-0.7,7.7-2.7c1.4-1.9,1.8-5,1.8-9.8c0-4.8-0.4-8.2-1.8-10.3c-1.4-2.1-3.9-3-7.7-3V181.2z
		"/>
	<path display="inline" d="M408.9,228.3l-6.5-36.2H399v36.2h-12.6v-85.7H399c15.1,0,21.5,8.5,21.5,24.7c0,8.5-2.2,16.2-7,19.5
		l8.1,41.5L408.9,228.3L408.9,228.3z M399,180.5c1.8,0,4.1-0.2,6-1.9s3.4-4.8,3.4-10.9s-1.5-9.3-3.4-11s-4.2-1.8-6-1.8V180.5z"/>
	<path display="inline" d="M461.3,210.7c-0.1,3.5-0.8,6.7-2.1,9.3c-1.1,2.3-2.7,4.6-5,6.3c-2.3,1.9-5.5,2.9-9.7,2.9
		c-4.2,0-7.5-1.1-9.8-2.9c-2.3-1.8-3.9-4-4.9-6.3c-1.3-2.7-2-5.8-2.1-9.3v-50.5c0.1-3.4,0.8-6.5,2.1-9.2c1.1-2.3,2.6-4.7,4.9-6.4
		c2.3-1.8,5.6-2.9,9.8-2.9c4.2,0,7.4,1.2,9.7,2.9c2.3,1.8,4,4.1,5,6.4c1.3,2.7,2,5.8,2.1,9.2V210.7z M448.7,160.2
		c0-2.3-0.5-4-1.6-5.4c-0.6-0.6-1.5-0.9-2.6-0.9c-2.2,0-3.3,1.6-3.7,3.2c-0.4,0.9-0.5,2-0.5,3.2v50.5c0,2.5,0.6,4.1,1.8,5.4
		c0.6,0.6,1.4,0.9,2.5,0.9c2.2,0,3.3-1.4,3.7-3.2c0.4-0.8,0.5-1.9,0.5-3.2L448.7,160.2L448.7,160.2z"/>
	<path display="inline" d="M465.9,216.8c2.5,0.4,4.3-0.2,5.7-2.1c0.7-0.8,1.1-2.2,1.1-4.2v-67.9h12.6v69.9c0,4.7-1.2,9-4.1,12.1
		c-2.9,3.1-7.8,5-15.3,4.6V216.8z"/>
	<path display="inline" d="M494,142.6h28.8v13h-16.2v22.5h11.7v13.7h-11.7v23.6h16.2v13H494V142.6z"/>
	<path display="inline" d="M562.6,198.9v11.8c-0.1,3.5-0.8,6.7-2.1,9.3c-1.1,2.3-2.7,4.6-5,6.3c-2.3,1.9-5.5,2.9-9.7,2.9
		c-4.2,0-7.5-1.1-9.8-2.9c-2.3-1.8-3.9-4-4.9-6.3c-1.3-2.7-2-5.8-2.1-9.3v-50.5c0.1-3.4,0.8-6.5,2.1-9.2c1.1-2.3,2.6-4.7,4.9-6.4
		c2.3-1.8,5.6-2.9,9.8-2.9c4.2,0,7.4,1.2,9.7,2.9c2.3,1.8,4,4.1,5,6.4c1.3,2.7,2,5.8,2.1,9.2V172h-11.8v-11.8c0-2.3-0.6-4-1.9-5.4
		c-0.6-0.6-1.6-0.9-2.9-0.9c-2.2,0-3.3,1.6-3.9,3.2c-0.4,0.9-0.5,2-0.6,3.2v50.5c0.1,2.5,0.8,4.1,2,5.4c0.6,0.6,1.4,0.9,2.5,0.9
		c2.7,0,3.7-1.4,4.3-3.2c0.4-0.8,0.5-1.9,0.5-3.2v-11.8H562.6z"/>
	<path display="inline" d="M565.7,155.5v-13h36.4v13h-11.9v72.8h-12.6v-72.8H565.7z"/>
	<path display="inline" d="M627.9,165.5c0-2.8-0.1-6-0.9-8.4c-0.8-2.3-2.1-4-4.1-4c-3.3,0.1-4.3,3.5-4.3,8.5c0,2.9,1.3,6,3.2,9.2
		c1.9,3.3,4.3,6.7,6.8,10.3c2.9,4.3,5.8,8.8,8.1,13.1s3.7,8.8,3.7,13.4c0,5.7-0.9,11.1-3.6,15.1c-2.7,4-7,6.5-13.9,6.5
		c-8.1,0-12.6-3-15.2-7.7c-2.6-4.7-3.2-10.9-3.2-17.3l12.4-1.2c0,3.6,0.1,7.2,1.1,9.9c0.8,2.8,2.2,4.7,4.9,4.7c3.7,0,5.1-4,5.1-9.5
		c0-2.8-1.4-6.1-3.3-9.5c-1.1-1.6-2.1-3.4-3.3-5.1c-2.5-3.5-5.1-7.5-7.9-11.8s-4.9-8.8-6.2-13.3c-0.7-2.2-1.1-4.6-1.1-6.9
		c0-4.7,1.1-9.7,3.7-13.5c2.7-3.7,6.8-6.4,12.7-6.5c7.6-0.1,12,3,14.5,7.6c2.5,4.7,3.2,10.4,3.2,15.2L627.9,165.5z"/>
</g>
<polygon fill="#FCFCFC" points="494,107.8 496.6,115.7 505,115.7 498.2,120.6 500.8,128.5 494,123.6 487.2,128.5 489.8,120.6 
	483,115.7 491.4,115.7 "/>
<polygon fill="#FCFCFC" points="470.5,110.4 472.4,116.2 478.5,116.2 473.6,119.8 475.5,125.7 470.5,122.1 465.6,125.7 467.5,119.8 
	462.5,116.2 468.7,116.2 "/>
<polygon fill="#FCFCFC" points="517.5,110.4 519.3,116.2 525.5,116.2 520.5,119.8 522.4,125.7 517.5,122.1 512.5,125.7 514.4,119.8 
	509.5,116.2 515.6,116.2 "/>
<polygon fill="#FCFCFC" points="494,244.5 496.6,252.5 505,252.5 498.2,257.3 500.8,265.3 494,260.3 487.2,265.3 489.8,257.3 
	483,252.5 491.4,252.5 "/>
<polygon fill="#FCFCFC" points="470.5,247.1 472.4,252.9 478.5,252.9 473.6,256.6 475.5,262.4 470.5,258.8 465.6,262.4 467.5,256.6 
	462.5,252.9 468.7,252.9 "/>
<polygon fill="#FCFCFC" points="517.5,247.1 519.3,252.9 525.5,252.9 520.5,256.6 522.4,262.4 517.5,258.8 512.5,262.4 514.4,256.6 
	509.5,252.9 515.6,252.9 "/>
</svg>
